PathFileType	4	(X/Y/Z)	C:/Users/opensim2020/Desktop/walking_exp_matlab/subject03_walking04_static.trc	
DataRate	CameraRate	NumFrames	NumMarkers	Units	OrigDataRate	OrigDataStartFrame	OrigNumFrames	
100.00	100.00	6	51	mm	100.00	354	196	
Frame#	Time	LFHD			RFHD			LBHD			RBHD			C7			T10			CLAV			STRN			RBAK			LSHO			LUPA			LELB			LFRM			LWRA			LWRB			LFIN			RSHO			RUPA			RELB			RFRM			RWRA			RWRB			RFIN			LASI			RASI			LPSI			RPSI			LTHI			LKNE			LTIB			LANK			LHEE			LTOE			RTHI			RKNE			RTIB			RANK			RHEE			RTOE			*39			*40			*41			*42			*43			*44			*45			*46			*47			*48			*49			*50			
		X1	Y1	Z1	X2	Y2	Z2	X3	Y3	Z3	X4	Y4	Z4	X5	Y5	Z5	X6	Y6	Z6	X7	Y7	Z7	X8	Y8	Z8	X9	Y9	Z9	X10	Y10	Z10	X11	Y11	Z11	X12	Y12	Z12	X13	Y13	Z13	X14	Y14	Z14	X15	Y15	Z15	X16	Y16	Z16	X17	Y17	Z17	X18	Y18	Z18	X19	Y19	Z19	X20	Y20	Z20	X21	Y21	Z21	X22	Y22	Z22	X23	Y23	Z23	X24	Y24	Z24	X25	Y25	Z25	X26	Y26	Z26	X27	Y27	Z27	X28	Y28	Z28	X29	Y29	Z29	X30	Y30	Z30	X31	Y31	Z31	X32	Y32	Z32	X33	Y33	Z33	X34	Y34	Z34	X35	Y35	Z35	X36	Y36	Z36	X37	Y37	Z37	X38	Y38	Z38	X39	Y39	Z39	X40	Y40	Z40	X41	Y41	Z41	X42	Y42	Z42	X43	Y43	Z43	X44	Y44	Z44	X45	Y45	Z45	X46	Y46	Z46	X47	Y47	Z47	X48	Y48	Z48	X49	Y49	Z49	X50	Y50	Z50	X51	Y51	Z51	

172	1.710	322.64755	-679.51904	1627.54834	351.97040	-550.18835	1643.69250	450.65240	-698.62128	1586.35022	474.79214	-570.90289	1602.50464	491.48431	-629.79510	1424.66211	511.51947	-620.69617	1113.78223	364.16669	-610.75787	1359.54285	310.56113	-607.85608	1195.24377	545.47766	-539.57532	1246.11719	408.57230	-771.83325	1394.40942	421.96747	-855.10181	1204.00354	418.52756	-882.42944	1084.12146	386.45825	-901.09943	958.95917	352.73801	-888.94470	841.43982	388.11087	-932.40106	848.15222	363.90942	-934.70020	766.50049	448.06271	-463.64410	1387.64160	458.12778	-367.76666	1177.47705	443.94861	-333.23526	1070.27600	424.31805	-304.04016	937.16608	382.00998	-312.92810	840.91003	424.94016	-279.29349	839.20917	397.85809	-272.79333	768.70959	357.54556	-721.57123	942.29449	372.94495	-488.36624	943.67926	520.72064	-685.12787	979.42090	527.81512	-535.95862	987.83612	435.61926	-773.66272	645.07141	450.99863	-736.60248	468.17383	512.27179	-755.43304	285.55106	538.90735	-729.86615	74.17093	580.71924	-697.08899	37.35555	386.86493	-709.24017	34.21903	454.55472	-443.13297	652.64020	455.94684	-476.15106	473.07968	513.62500	-463.84308	293.40775	547.06189	-501.69922	77.02700	587.21661	-553.05365	42.54113	404.80212	-500.69162	36.39581	411.98825	-653.87982	1695.11707																																	 
173	1.720	322.05765	-679.42609	1627.50403	351.24316	-550.02875	1643.66431	450.06363	-698.43671	1586.31335	474.15411	-570.72028	1602.45581	490.89139	-629.58521	1424.64661	511.02026	-620.61359	1113.76929	363.57443	-610.59698	1359.52209	310.02295	-607.73792	1195.18665	544.95654	-539.45667	1246.08655	408.01877	-771.70691	1394.38708	421.41547	-854.99658	1203.99878	417.98935	-882.33740	1084.10046	385.86179	-900.98047	958.99286	351.98947	-888.95380	841.56732	387.46613	-932.18213	848.15210	363.11505	-934.39911	766.50500	447.50006	-463.46872	1387.55994	457.60318	-367.64789	1177.37329	443.48453	-333.18250	1070.12817	423.80905	-304.01102	937.01910	381.61905	-312.96939	840.68939	424.54922	-279.29745	839.01782	397.49658	-272.79794	768.51147	357.17886	-721.53998	942.23816	372.49136	-488.33313	943.58990	520.51074	-685.10297	979.35620	527.28619	-535.91528	987.83453	435.39801	-773.61548	645.00299	450.87054	-736.61414	468.14499	512.23523	-755.40973	285.55411	538.91132	-729.87762	74.19756	580.73083	-697.06720	37.36200	386.85654	-709.22253	34.20911	454.23892	-443.12222	652.61194	455.70480	-476.13519	473.05527	513.48944	-463.85510	293.40247	546.95691	-501.65521	77.10723	587.22760	-553.05139	42.54913	404.82880	-500.68442	36.38652	411.36432	-653.78760	1695.08032																																	 
174	1.730	321.45941	-679.30939	1627.46350	350.62906	-549.87976	1643.60205	449.48346	-698.20044	1586.25952	473.48508	-570.52759	1602.44385	490.27353	-629.38965	1424.64734	510.50549	-620.54791	1113.85901	363.02383	-610.42651	1359.44019	309.48190	-607.59558	1195.08374	544.39166	-539.27271	1246.07983	407.43918	-771.52985	1394.37720	420.89642	-854.86871	1204.04480	417.39389	-882.14966	1084.07483	385.23209	-900.86774	959.01831	351.42850	-888.89471	841.63867	386.73004	-932.03308	848.14697	362.33640	-934.40942	766.51923	446.85815	-463.30396	1387.46643	457.04944	-367.53653	1177.22925	442.90369	-333.10559	1069.98340	423.34027	-304.02353	936.84210	381.17374	-312.94962	840.57361	424.12015	-279.33395	838.85962	397.09836	-272.79175	768.37335	356.78262	-721.52759	942.15527	372.05176	-488.30438	943.47992	519.92987	-685.01648	979.42499	526.78687	-535.92743	987.85773	435.21780	-773.60132	645.06061	450.74271	-736.61890	468.13837	512.14471	-755.41205	285.58786	538.88092	-729.87604	74.23424	580.71277	-697.09619	37.40026	386.86053	-709.25909	34.23227	453.94284	-443.11282	652.58490	455.54489	-476.09802	473.06808	513.38177	-463.83572	293.40891	547.04358	-501.67789	77.13966	587.31232	-553.34229	42.66155	404.82141	-500.67026	36.42127	410.76422	-653.51050	1695.03711																																	 
175	1.740	320.80978	-679.12817	1627.41907	349.99539	-549.76630	1643.54724	448.87772	-697.99445	1586.23486	472.82819	-570.27881	1602.39172	489.66336	-629.21466	1424.64099	509.99088	-620.45361	1113.79553	362.45697	-610.26733	1359.38525	308.93137	-607.54254	1195.00537	543.79559	-539.11676	1246.03564	406.83676	-771.38519	1394.35608	420.31256	-854.69733	1203.99426	416.83041	-882.06213	1084.08691	384.55786	-900.70325	959.02014	350.42612	-888.61578	841.69116	385.93515	-931.87872	848.16315	361.53696	-934.17004	766.55975	446.20163	-463.06787	1387.36304	456.45230	-367.41046	1177.10999	442.33151	-333.04755	1069.83923	422.88467	-303.98090	936.66541	380.73978	-313.00009	840.26080	423.73431	-279.67010	838.48376	396.73495	-272.86075	768.23157	356.34979	-721.48291	942.12341	371.55588	-488.19965	943.42053	519.46997	-684.90869	979.42426	526.41486	-535.75000	987.89575	434.98923	-773.55951	645.02087	450.59216	-736.60437	468.10519	512.10144	-755.42413	285.60773	538.88678	-729.83649	74.26088	580.71997	-697.05304	37.39074	386.85815	-709.26996	34.22927	453.59991	-443.15149	652.51642	455.33914	-476.10699	473.02115	513.27747	-463.85577	293.41599	547.06451	-501.67987	77.15924	587.19080	-553.06616	42.59499	404.80823	-500.69937	36.39774	410.12125	-653.37061	1695.01953																																	 
176	1.750	320.20963	-678.93738	1627.35645	349.23425	-549.60522	1643.43030	448.26529	-697.71429	1586.16052	472.17773	-570.03278	1602.37561	489.04553	-628.93457	1424.61035	509.51233	-620.31244	1113.75073	361.84531	-610.07764	1359.35034	308.42673	-607.44269	1194.93445	543.22418	-538.97345	1246.03064	406.25821	-771.16852	1394.35693	419.69946	-854.50549	1203.97192	416.18207	-881.89331	1084.04736	383.85916	-900.42719	958.97650	349.66568	-888.34784	841.66290	385.18585	-931.62769	848.16516	360.65848	-933.76489	766.57843	445.57776	-462.86606	1387.27661	455.89664	-367.34094	1176.93970	441.77313	-332.98526	1069.66858	422.35242	-304.02023	936.44751	380.26767	-313.06332	840.06708	423.26852	-279.69290	838.27087	396.31708	-272.91898	767.92981	355.95242	-721.46429	942.07056	371.19336	-488.23660	943.37323	519.24304	-684.95880	979.50177	525.99084	-535.65350	987.92084	434.76382	-773.55548	645.01208	450.26987	-736.30786	467.82361	512.02844	-755.35052	285.60913	538.90417	-729.86731	74.27001	580.72913	-697.06824	37.42210	386.87808	-709.24109	34.22979	453.20987	-443.16422	652.48035	455.13885	-476.02692	473.02475	513.15765	-463.85703	293.40555	547.19696	-501.61462	77.29526	587.19635	-553.06970	42.62429	404.82739	-500.70490	36.38567	409.48666	-653.23785	1695.03064																																	 
177	1.760	319.59930	-678.80023	1627.29675	348.56894	-549.43390	1643.43713	447.65741	-697.52637	1586.12073	471.43085	-569.68909	1602.34521	488.41547	-628.71002	1424.59180	509.00610	-620.23547	1113.79065	361.25558	-609.90198	1359.23120	307.87036	-607.28394	1194.85217	542.60956	-538.72272	1245.97314	405.64331	-770.97687	1394.31458	419.09238	-854.34760	1203.94922	415.61911	-881.62384	1084.03931	383.15823	-900.22852	958.99530	348.96088	-888.25775	841.75470	384.45279	-931.27002	848.11212	359.83954	-933.60938	766.60260	444.94357	-462.67432	1387.09705	455.27466	-367.21420	1176.75439	441.19144	-332.93344	1069.49512	421.75153	-304.08438	936.09814	379.76663	-313.14029	839.90546	422.69492	-279.51306	838.21600	395.82742	-272.99905	767.69659	355.57361	-721.45374	942.01440	370.79010	-488.18442	943.30493	518.82593	-684.89758	979.50873	525.56616	-535.55438	987.93304	434.50726	-773.54596	644.97693	450.12106	-736.31512	467.80490	511.94046	-755.38245	285.61813	538.90466	-729.86261	74.27887	580.71313	-697.06476	37.45380	386.86652	-709.26593	34.23372	452.86893	-443.16205	652.47546	454.93997	-476.03458	472.99588	513.04932	-463.83792	293.42349	547.00909	-501.67450	77.25532	587.20197	-553.04767	42.64129	404.80533	-500.69324	36.43124	408.84402	-653.04871	1694.94116																																	 
